<svg width="1636" height="1490" viewBox="0 0 1636 1490" fill="none" xmlns="http://www.w3.org/2000/svg">
<path fill-rule="evenodd" clip-rule="evenodd" d="M1151 1.00198C1125.03 5.15898 1104.41 22.231 1095.59 46.882C1092.69 54.974 1092.5 56.354 1092.53 69.5C1092.55 82.062 1092.83 84.28 1095.22 91.096C1099.11 102.182 1104.39 110.579 1112.44 118.5C1120.86 126.774 1129.51 132.07 1140.5 135.677C1150.61 138.996 1167.64 139.453 1177.93 136.682C1201.67 130.287 1219.09 113.563 1227.18 89.414C1230.24 80.284 1230.47 59.887 1227.62 50.5C1220.46 26.905 1201.69 8.62697 1178.44 2.61797C1170.77 0.634975 1157.99 -0.118023 1151 1.00198ZM1128.55 56.521C1127.92 60.748 1127.92 60.763 1131.47 61.429C1135.62 62.206 1137 61.605 1137 59.023C1137 55.609 1138.19 54 1140.72 54C1143.14 54 1143.2 54.168 1142.56 58.75C1140.82 71.091 1139.7 75.999 1138.65 75.985C1135.94 75.949 1134.76 74.155 1135.17 70.677C1135.51 67.754 1135.22 67.027 1133.54 66.576C1128.73 65.283 1127.38 65.883 1126.41 69.75C1125.67 72.713 1125.06 73.428 1123.49 73.155C1122.39 72.965 1121.3 72.618 1121.06 72.383C1120.35 71.688 1123.13 53.601 1124.14 52.353C1124.65 51.723 1126 51.448 1127.13 51.744C1128.93 52.216 1129.11 52.802 1128.55 56.521ZM1154.31 56.094C1158.26 56.695 1161.85 57.52 1162.28 57.926C1163.85 59.409 1161.76 61.893 1158.69 62.193C1155.8 62.475 1155.48 62.872 1154.81 67C1152.97 78.26 1153.01 78.142 1150.69 77.812C1148.23 77.461 1147.95 74.766 1149.39 65.25C1150.17 60.088 1150.15 60 1147.65 60C1144.74 60 1143.73 58.869 1144.6 56.59C1145.33 54.7 1145.19 54.707 1154.31 56.094ZM1169.62 58.765C1170.23 59.169 1171.48 62.087 1172.4 65.25C1173.31 68.413 1174.22 71 1174.42 71C1174.63 71 1176.24 68.75 1178 66C1180.64 61.89 1181.72 61 1184.1 61C1187.47 61 1187.71 62.524 1185.97 72.566C1184.12 83.285 1184.16 83.184 1181.72 82.433C1180.5 82.058 1179.43 81.695 1179.33 81.625C1179.24 81.555 1179.58 79.287 1180.08 76.583C1180.59 73.88 1180.84 71.509 1180.65 71.314C1180.45 71.119 1179.1 72.768 1177.63 74.98C1174.02 80.433 1171.43 80.355 1169.99 74.75C1169.38 72.413 1168.75 70.05 1168.57 69.5C1168.4 68.95 1167.93 70.3 1167.54 72.5C1166.42 78.774 1165.95 80.001 1164.68 79.985C1161.53 79.944 1161.31 78.511 1162.88 68.25C1164.28 59.13 1164.67 58.002 1166.47 58.015C1167.59 58.024 1169 58.361 1169.62 58.765ZM1196.73 63.455C1196.86 63.55 1196.36 67.078 1195.63 71.295C1194.9 75.512 1194.53 79.195 1194.81 79.481C1195.1 79.766 1196.5 80.007 1197.92 80.015C1201.53 80.037 1203.2 81.317 1202.38 83.442C1201.79 84.992 1200.91 85.136 1195.6 84.544C1192.25 84.169 1189.19 83.556 1188.81 83.181C1188.43 82.807 1188.83 77.895 1189.7 72.266L1191.28 62.032L1193.89 62.656C1195.33 63 1196.6 63.359 1196.73 63.455ZM538.174 283.314C535.098 286.589 535.302 291.306 538.635 293.927C543.984 298.135 550.4 295.175 550.4 288.5C550.4 281.707 542.738 278.457 538.174 283.314ZM693.472 283.437C690.511 286.398 690.308 289.923 692.911 293.139L694.823 295.5L774.254 295.768C853.512 296.034 853.692 296.03 856.343 293.945C859.369 291.564 859.946 286.676 857.581 283.441C856.199 281.552 854.035 281.493 776.053 281.232L695.944 280.965L693.472 283.437ZM228.65 289.465C227.566 290.287 227.112 291.372 227.554 292.088C228.03 292.857 227.892 293.052 227.184 292.614C225.805 291.761 224.569 296.065 225.421 298.752C226.572 302.378 229.944 305 233.457 305C238.214 305 239.861 304.17 241.537 300.928C243.197 297.718 243.503 293.571 242.011 294.493C241.46 294.834 241.269 294.463 241.579 293.654C243.171 289.507 232.961 286.199 228.65 289.465ZM1109.5 292.889C1104.55 295.191 1100.64 299.268 1098.37 304.5C1096.78 308.175 1096.66 313.698 1096.87 372.5C1097.1 434.599 1097.16 436.626 1099.14 440.751C1101.54 445.761 1107.09 450.647 1112 452.075C1114.31 452.747 1153.76 452.992 1228.09 452.797L1340.67 452.5L1344.98 449.517C1347.34 447.876 1350.46 444.759 1351.89 442.59L1354.5 438.646V372V305.354L1351.74 301.186C1350.22 298.893 1347.11 295.776 1344.82 294.259L1340.65 291.5L1227.07 291.265C1118.21 291.04 1113.33 291.107 1109.5 292.889ZM255.656 317.133C252.875 318.749 250.822 324.401 251.943 327.351C255.35 336.311 269.2 334.023 269.2 324.5C269.2 321.485 268.581 320.036 266.544 318.284C263.693 315.832 258.787 315.313 255.656 317.133ZM540.315 327.016C537.6 328.099 536 330.977 536 334.779C536 341.177 544.292 343.687 548.658 338.611C551.595 335.197 551.619 332.793 548.75 329.637C546.07 326.689 543.297 325.828 540.315 327.016ZM579.03 327.279C577.672 327.967 575.872 329.76 575.03 331.264C573.657 333.72 573.657 334.28 575.03 336.736C575.872 338.24 577.672 340.033 579.03 340.721C580.96 341.697 605.281 341.974 690.3 341.985C808.86 342.001 804.152 342.226 805.594 336.482C806.576 332.571 805.224 329.167 802.035 327.518C799.462 326.188 785.653 326.002 690.3 326.015C605.281 326.026 580.96 326.303 579.03 327.279ZM1179 330.372C1179 334.689 1178.95 334.752 1175.06 335.375C1172.89 335.722 1170.75 336.567 1170.31 337.253C1169.86 337.939 1169.28 344.959 1169 352.853L1168.5 367.207L1164.62 370.467L1160.73 373.727L1163.84 375.562C1168.14 378.106 1169 381.43 1169 395.578C1169 409.276 1169.47 410.435 1175.53 411.572C1178.86 412.197 1179 412.395 1179 416.611C1179 420.974 1178.98 421 1175.44 421C1169.41 421 1163.08 418.916 1160.97 416.24C1159.21 413.995 1159 412.137 1158.99 398.615C1158.97 381.628 1158.22 378.814 1153.47 378C1150.79 377.54 1150.47 377.081 1150.19 373.245C1149.91 369.361 1150.09 369 1152.25 369C1153.55 369 1155.49 368.362 1156.56 367.582C1158.32 366.293 1158.52 364.672 1158.76 349.884C1159.06 331.883 1159.63 329.938 1165.33 327.459C1167.07 326.7 1170.86 326.061 1173.75 326.039L1179 326V330.372ZM1286.45 327.416C1292.62 329.993 1293.39 332.376 1293.83 350.404C1294.04 359.257 1294.68 367.063 1295.23 367.75C1295.79 368.438 1297.32 369 1298.62 369C1300.77 369 1301 369.428 1301 373.5C1301 377.495 1300.75 378.002 1298.75 378.015C1294.48 378.044 1294.25 378.864 1293.82 396C1293.56 406.42 1292.95 413.325 1292.17 414.74C1290.27 418.205 1285.18 420.314 1278.5 420.412L1272.5 420.5V416.564C1272.5 412.903 1272.75 412.564 1276 411.728C1282.59 410.036 1283 409.088 1283 395.494C1283 381.484 1283.87 378.101 1288.09 375.607L1291.12 373.816L1287.31 370.524L1283.5 367.232L1283 352.662C1282.73 344.649 1282.04 337.636 1281.48 337.079C1280.92 336.521 1278.67 335.695 1276.48 335.243C1272.67 334.456 1272.49 334.24 1272.19 330.21L1271.89 326H1277.48C1280.55 326 1284.59 326.637 1286.45 327.416ZM254.56 346.25C248.576 351.526 252.391 361 260.5 361C264.426 361 267.004 359.234 268.578 355.467C272.1 347.039 261.539 340.096 254.56 346.25ZM538.635 374.073C533.462 378.141 536.43 387 542.966 387C548.854 387 552.271 381.358 549.558 376.113C547.162 371.479 542.935 370.69 538.635 374.073ZM576.911 373.871C575.238 375.225 574.6 376.78 574.6 379.5C574.6 382.22 575.238 383.775 576.911 385.129C579.086 386.89 581.671 387 621.038 387H662.855L664.927 384.365C667.677 380.87 667.545 377.454 664.545 374.455L662.091 372H620.656C581.663 372 579.085 372.11 576.911 373.871ZM227.855 397.417C224.474 400.799 224.371 405.099 227.58 408.912C229.568 411.276 230.996 412 233.666 412C238.293 412 243 407.478 243 403.031C243 395.8 233.131 392.142 227.855 397.417ZM634.964 407.365C630.269 409.232 623.193 412.389 619.239 414.38L612.05 418H596.459C577.509 418 575.049 418.872 575.015 425.595C574.994 429.935 577.673 432 583.329 432C585.898 432 588 432.371 588 432.825C588 433.279 585.171 435.946 581.713 438.751C578.256 441.557 569.874 449.558 563.088 456.532C553.939 465.932 550.526 468.861 549.89 467.856C549.417 467.11 549.024 466.235 549.015 465.911C549.007 465.586 547.823 464.785 546.385 464.13C541.643 461.969 536 465.279 536 470.221C536 474.276 537.424 476.519 540.917 477.966L543.911 479.206L540.123 484.353C529.057 499.388 510.577 535.77 510.588 542.5C510.592 545.333 512.3 550.002 516.439 558.5C544.852 616.835 556.767 645.86 568.986 686.5C571.226 693.951 581.796 739.12 584.431 752.5C589.715 779.337 591.988 808.116 590.043 823.569C587.031 847.496 582.035 857.95 558.604 889.359C538.316 916.555 533.512 927.284 532.349 948C531.627 960.852 532.79 970.75 538.461 1000C540.861 1012.38 543.134 1025.33 543.514 1028.79L544.205 1035.07L553.257 1034.79L562.309 1034.5L564.076 1026C567.554 1009.27 574.695 991.293 584.898 973.573L590.038 964.647L592.561 946.573C602.376 876.265 612.027 834.117 622.236 816.979C625.287 811.858 626.219 811.139 636.5 805.979C645.605 801.408 673.602 791.192 697 783.902L701.5 782.5L693.897 782.211L686.294 781.921L685.657 772.954C684.444 755.858 681.115 744.649 672.305 728C669.25 722.225 664.281 712.775 661.264 707C658.247 701.225 654.709 694.629 653.401 692.342C650.452 687.185 645.43 672.111 644.541 665.75L643.877 661H655.392C661.819 661 668.001 660.501 669.385 659.87C674.459 657.559 674.91 649.628 670.114 647.061C669.023 646.477 662.918 646 656.547 646H644.962L645.61 643.25C645.967 641.737 648.049 637.015 650.238 632.755C653.351 626.696 655.336 624.197 659.359 621.271C662.186 619.213 666.705 615.498 669.401 613.015C672.621 610.049 674.457 608.948 674.753 609.806C675.001 610.524 676.143 611.987 677.291 613.056C679.278 614.907 681.109 615 715.689 615C735.66 615 752 615.189 752 615.419C752 615.65 751.271 618.684 750.38 622.163C748.368 630.016 748.929 646.13 751.471 653.5C754.215 661.456 758.798 670.582 762.454 675.372C764.949 678.641 766.013 681.257 766.53 685.398L767.23 691H755.197C748.579 691 742.435 691.28 741.545 691.621C740.654 691.963 739.232 693.584 738.384 695.224C736.152 699.54 738.013 703.626 742.87 705.073C746.442 706.137 759.115 705.89 773.5 704.475L780.5 703.786L790.5 693.855C821.349 663.216 855.819 650.276 888.25 657.158C890.862 657.712 893 658.328 893 658.526C893 658.724 891.574 663.074 889.831 668.193C887.193 675.94 886.648 679.093 886.581 687C886.485 698.249 888.039 702.451 895.458 711C901.169 717.581 905.762 726.732 906.627 733.25C906.974 735.862 907.572 738 907.956 738C908.34 738 909.212 733.612 909.894 728.25C911.962 711.981 913.721 708.195 919.908 706.69C923.645 705.781 928.985 708.501 930.299 711.983C931.795 715.945 932.593 715.789 934.041 711.25C934.699 709.188 936.59 706.071 938.244 704.323C940.239 702.215 941.171 700.282 941.014 698.573C940.59 693.936 940.736 686.701 941.513 673.911C942.784 652.975 938.934 635.023 930.464 622.393C928.009 618.731 926 615.57 926 615.368C926 615.165 976.888 615 1039.08 615C1129.16 615 1152.06 615.254 1151.64 616.25C1151.35 616.938 1150.58 619.414 1149.94 621.753C1149.07 624.877 1147.19 627.462 1142.83 631.494L1136.91 636.981L1131 634.001C1120.18 628.538 1110.95 626.508 1097.5 626.631C1084.22 626.754 1075.75 628.549 1062.56 634.039C1043.29 642.061 1014.52 662.913 987 688.804L978.5 696.8L989.513 708.15C1003.14 722.191 1047.64 768.475 1062.49 784.047C1072.12 794.148 1074.19 795.822 1079 797.417C1085.85 799.687 1090.64 804.571 1093.93 812.643C1095.4 816.248 1098.56 821.02 1101.93 824.712L1107.5 830.819L1123.5 813.912L1139.5 797.004L1232.58 797.002L1325.66 797L1336.08 808.25C1341.81 814.438 1348.66 821.826 1351.31 824.668L1356.14 829.836L1354.5 834.656C1352.46 840.67 1352.42 851.132 1354.43 856.806C1356.42 862.449 1360.44 867.947 1365.18 871.51C1367.28 873.091 1369 875.104 1369 875.984C1369 876.864 1367.4 885.89 1365.44 896.042C1360.04 924.043 1344.1 1005.2 1343.5 1007.75L1342.96 1010H1246.51C1169.8 1010 1150.15 1010.26 1150.47 1011.25C1150.7 1011.94 1151.39 1015.09 1152.01 1018.25L1153.14 1024H1246.57C1333.67 1024 1340 1024.11 1340 1025.69C1340 1026.62 1338.78 1033.6 1337.29 1041.19L1334.57 1055H1310.21H1285.85L1282.82 1058.02C1280.38 1060.47 1279.93 1061.58 1280.46 1063.77C1281.85 1069.42 1282.09 1069.47 1307.66 1069.8L1331.24 1070.1L1330.56 1075.28C1329.77 1081.21 1328.64 1082.99 1325.63 1083.02C1319.32 1083.09 1309.01 1090.94 1304.47 1099.14C1301.69 1104.15 1301.5 1105.2 1301.5 1115.25V1126H1297.49C1293.32 1126 1269.39 1128.6 1264.96 1129.53C1262.58 1130.03 1262.28 1129.63 1260.23 1123.28C1256.9 1112.96 1251.37 1104.39 1242 1095.01C1225.48 1078.47 1207.25 1071.21 1185 1072.33C1175.85 1072.79 1164.92 1074.75 1163.47 1076.19C1163.21 1076.45 1163.7 1081.13 1164.55 1086.58C1166.6 1099.65 1167.54 1123.66 1166.15 1127.2C1165.3 1129.36 1163.8 1130.29 1158.51 1131.93C1145.41 1135.97 1103.81 1139.34 1048.5 1140.83L1022.5 1141.54L1008 1148.9C1000.03 1152.94 985.499 1160.02 975.719 1164.63L957.938 1173H850.822H743.705L723.603 1160.83C712.546 1154.14 703.275 1148.4 703 1148.07C702.725 1147.75 700.587 1146.24 698.25 1144.73C695.163 1142.73 694 1141.3 694 1139.53C694 1136.52 692.852 1136.3 673 1135.49C633.133 1133.86 588.142 1129.89 582.324 1127.48C579.575 1126.34 579.051 1125.52 578.431 1121.39C578.038 1118.77 578.006 1106.69 578.361 1094.56L579.006 1072.5L559.054 1060.65C538.596 1048.51 531.771 1045.22 521.478 1042.54C514.072 1040.61 496.784 1040.55 487.937 1042.43C461.186 1048.1 438.593 1069.49 430.829 1096.5C427.765 1107.16 427.561 1127.13 430.416 1137C432.409 1143.89 437.72 1155.36 441.276 1160.44C445.205 1166.06 455.44 1176.19 461 1179.97C464.025 1182.02 512.4 1206.78 568.5 1234.98C672.361 1287.2 691 1296.72 691 1297.6C691 1297.88 689.313 1298.79 687.25 1299.64C673.149 1305.44 660.163 1311.55 658.265 1313.28C654.239 1316.96 654.367 1320.84 658.835 1330.66C691.548 1402.53 717.704 1448.42 737.633 1468.9C746.131 1477.63 746.999 1478.25 749.866 1477.68C754.574 1476.73 760.648 1472.25 763.939 1467.28C767.831 1461.4 769.409 1454.03 768.626 1445.4C767.01 1427.57 766.812 1416.71 767.962 1408.82C769.2 1400.33 773.879 1384.51 776.484 1380L777.929 1377.5L777.98 1380.5C778.084 1386.68 778.055 1386.68 804.579 1376.51L829.5 1366.96L857.814 1380.98C873.387 1388.69 886.55 1395 887.064 1395C887.579 1395 888.007 1393.99 888.015 1392.75C888.024 1391.51 888.425 1389.88 888.906 1389.12C890.03 1387.34 892.664 1396.14 894.709 1408.5C896.602 1419.94 895.891 1435.49 892.947 1447C889.935 1458.78 889.934 1468.96 892.946 1475.79C895.429 1481.42 902.578 1488.6 906.728 1489.65C914.301 1491.55 939.796 1464.43 965.617 1427C988.392 1393.99 1017 1346.37 1017 1341.46C1017 1335.56 1014.41 1333.66 981.698 1315.54C977.957 1313.46 975.032 1311.65 975.198 1311.5C975.364 1311.35 985.85 1307.3 998.5 1302.5C1011.15 1297.7 1030.28 1290.4 1041 1286.28C1051.73 1282.16 1068.6 1275.73 1078.5 1271.99C1096.99 1265.02 1144.73 1246.79 1174 1235.52C1183.08 1232.03 1196.13 1227.05 1203 1224.46C1218.6 1218.57 1226.77 1214.49 1234.69 1208.65C1241.83 1203.39 1250.64 1193.14 1254.69 1185.38L1257.5 1180L1333.25 1180L1409 1180V1155.52V1131.04L1406.75 1130.52C1402.26 1129.48 1384.31 1127.09 1376.5 1126.49C1363.38 1125.49 1364.5 1126.53 1364.5 1115.29C1364.5 1106.61 1364.19 1104.86 1361.72 1099.84C1359.13 1094.56 1353.05 1087.85 1349.91 1086.8C1348.76 1086.42 1348.74 1085.16 1349.79 1079.05C1350.47 1075.03 1351.28 1071.36 1351.58 1070.87C1351.88 1070.39 1371.01 1070 1394.1 1070H1436.09L1438.55 1067.54C1441.67 1064.42 1441.67 1060.58 1438.55 1057.45L1436.09 1055H1395.55C1357.58 1055 1355 1054.89 1355.05 1053.25C1355.08 1052.29 1356.32 1045.42 1357.8 1038L1360.5 1024.5L1495.94 1024.25L1631.38 1023.99L1633.69 1021.82C1636.65 1019.04 1636.65 1014.96 1633.69 1012.17L1631.37 1010H1497.69H1364L1364 1007.75C1364 1006.51 1366.72 991.55 1370.05 974.5C1373.39 957.45 1378.79 929.775 1382.05 913C1385.32 896.225 1388.22 881.523 1388.5 880.33C1388.84 878.865 1390.06 877.931 1392.25 877.458C1400.94 875.581 1409.18 868.956 1413.56 860.308C1416.13 855.227 1416.5 853.436 1416.49 846C1416.48 839.421 1415.99 836.439 1414.32 832.804C1411.53 826.74 1404.16 819.399 1398.21 816.77C1392.1 814.065 1381.92 813.412 1375.75 815.329L1371 816.805L1364.61 810.152C1361.1 806.494 1357.02 802.042 1355.53 800.26L1352.84 797.021L1492.51 796.76L1632.18 796.5L1634.09 794.139C1636.52 791.136 1636.52 787.864 1634.09 784.861L1632.18 782.5L1485.39 782.24L1338.61 781.98L1336.19 779.74C1334.85 778.508 1327.89 771.2 1320.71 763.5C1313.54 755.8 1303.33 745 1298.03 739.5C1292.72 734 1273.38 713.525 1255.03 694C1236.69 674.475 1218.98 655.711 1215.67 652.303L1209.66 646.105L1211.33 640.938C1213.4 634.521 1213.48 625.599 1211.5 620C1210.68 617.662 1210 615.58 1210 615.374C1210 615.168 1219.02 615 1230.05 615C1250 615 1250.1 614.988 1252.55 612.545C1255.54 609.547 1255.65 607.095 1252.93 603.635L1250.86 601L1224.18 600.984C1204.36 600.973 1195.96 600.596 1191.5 599.52C1183.72 597.642 1177.49 597.639 1170.31 599.507C1165.3 600.812 1147.19 601.011 1034.77 600.993L905.007 600.971L902.41 596.858C898.806 591.148 892.251 584.999 886.338 581.781C875.47 575.865 866.172 575.04 832.711 577.017C792.871 579.372 777.686 583.691 763.793 596.62L759.086 601H720.543C694.688 601 682 600.66 682 599.967C682 599.398 683.075 596.811 684.388 594.217C690.065 583.006 691.675 568.061 688.404 556.932C683.975 541.863 671.323 526.038 655.677 516C649.919 512.305 646.691 509.529 645.845 507.541C643.021 500.913 645.432 486.441 651.371 474.364C658.632 459.601 665.838 443.191 667.87 436.791C672.174 423.234 670.013 412.684 661.82 407.262C658.451 405.033 656.361 404.471 650.59 404.247C644.49 404.009 642.308 404.445 634.964 407.365ZM537.943 420.057C535.021 422.979 535.621 428.648 539.13 431.256C546.485 436.724 554.372 426.748 548.227 419.75C546.094 417.321 540.512 417.488 537.943 420.057ZM256.315 422.592C254.421 423.541 252.699 425.425 252.065 427.242C250.695 431.174 250.719 432.292 252.155 431.405C252.835 430.984 253.039 431.128 252.651 431.755C250.925 434.549 256.247 439 261.314 439C264.236 439 268.955 434.534 269.118 431.614C269.329 427.851 268.891 426.539 266.676 424.311C263.675 421.292 260.097 420.699 256.315 422.592ZM456.2 434.2C454.407 435.993 454.752 440.466 456.829 442.345C460.645 445.799 466 443.337 466 438.129C466 434.565 464.322 433 460.5 433C458.795 433 456.86 433.54 456.2 434.2ZM463 438.031C463 440.39 460.355 441.755 458.8 440.2C457.245 438.645 458.61 436 460.969 436C462.344 436 463 436.656 463 438.031ZM453.014 454.308C449.003 463.155 441.86 484.898 438.592 498.213C434.555 514.659 433.009 527.13 433.041 543C433.091 568.333 435.995 578.122 453.803 613C481.456 667.161 486.904 678.154 491.473 689C502.854 716.015 510.429 741.7 513.533 763.796C514.894 773.488 515.139 780.052 514.689 794.796C514.127 813.209 512.954 821.741 509.367 833.529L507.55 839.5L506.837 825.5C504.201 773.755 472.776 725.769 415 685.265C402.906 676.786 382.765 664.949 369.812 658.705C361.034 654.475 361 654.467 361 656.542C361 657.473 363.569 659.236 367.492 660.997C392.403 672.173 429.057 697.378 449.145 717.143C476.925 744.477 492.556 770.359 500.671 802.461C504.158 816.257 505.189 844.838 502.498 853.127C499.703 861.738 499 861.176 499 850.331C499 832.275 494.275 812.338 486.006 795.5C472.744 768.496 449.399 749.192 419.539 740.539C409.816 737.722 406 737.364 406 739.271C406 740.024 408.344 740.992 411.75 741.646C414.913 742.253 421.602 744.296 426.616 746.185C452.591 755.976 471.34 772.887 483.508 797.5C492.288 815.259 495.984 832.99 495.994 857.397C495.999 869.994 495.728 872.144 493.092 880.397C475.956 934.048 472.717 984.959 484.164 1020.75C486.042 1026.62 487.198 1028.11 488.391 1026.18C488.671 1025.72 487.827 1021.98 486.516 1017.85C479.45 995.595 478.876 957.079 485.117 924C489.117 902.801 493.881 886.754 507.904 847.252C516.259 823.714 517.435 816.541 517.457 789C517.476 763.264 516.957 759.206 510.443 734.205C503.659 708.167 494.293 685.305 475.128 648C448.732 596.621 449.463 598.894 449.561 568.5C449.618 550.991 449.838 548.715 452.365 539.5C458.413 517.443 469.569 498.416 486.514 481.258C492.244 475.455 496.334 470.54 495.949 469.918C495.525 469.232 493.247 470.614 489.885 473.594C470.606 490.689 455.939 514.258 449.183 539C446.778 547.809 446.586 550.055 446.544 569.865L446.5 591.231L443.66 584.922C438.459 573.37 436.788 564.917 436.261 547.477C435.429 519.982 440.727 493.787 453.718 461.166C456.993 452.943 457.931 449.531 457.135 448.735C456.34 447.94 455.208 449.469 453.014 454.308ZM256.729 450.092C255.755 450.659 255.216 451.54 255.531 452.05C255.846 452.56 255.451 452.726 254.652 452.42C253.651 452.036 252.833 452.976 252.017 455.447C248.579 465.865 264.368 471.544 268.601 461.413C270.56 456.724 268.839 452.378 264.269 450.468C260.162 448.752 259.12 448.7 256.729 450.092ZM501.512 460.169C498.555 462.495 498.26 466.021 500.829 468.345C503.288 470.57 506.568 470.432 509 468C511.383 465.617 511.499 464.158 509.531 461.347C507.403 458.31 504.431 457.873 501.512 460.169ZM507.269 463.25C507.973 465.266 506.924 467 505 467C503.12 467 501.6 464.456 502.556 462.91C503.388 461.563 506.766 461.806 507.269 463.25ZM739.488 466.013C736.908 468.864 737.133 473.88 739.944 476.156C742.123 477.92 746.452 478 839.5 478C930.82 478 936.911 477.892 938.949 476.242C941.692 474.021 941.975 468.734 939.497 465.997C937.714 464.027 936.371 464 839.5 464C742.37 464 741.29 464.022 739.488 466.013ZM280.059 480.941C276.583 484.417 277.511 489.179 282.13 491.567C284.311 492.695 285.512 492.796 287.037 491.98C288.147 491.386 288.795 490.477 288.476 489.961C288.157 489.445 288.576 489.284 289.406 489.602C290.448 490.002 291.125 489.351 291.588 487.504C293.144 481.306 284.573 476.427 280.059 480.941ZM280.059 502.941C276.577 506.423 277.512 511.179 282.15 513.578C285.869 515.501 289.997 513.794 291.42 509.746C293.586 503.589 284.721 498.279 280.059 502.941ZM229.229 534.669C228.53 534.951 227.292 536.468 226.479 538.041C224.806 541.276 224.491 545.433 225.989 544.507C226.532 544.171 226.762 544.482 226.499 545.198C225.493 547.938 229.879 551 234.812 551C237.881 551 240.522 548.912 239.241 547.498C238.834 547.048 239.04 546.989 239.7 547.368C240.384 547.76 241.351 547.212 241.95 546.094C244.948 540.491 240.778 533.944 234.298 534.079C232.209 534.122 229.928 534.388 229.229 534.669ZM230.357 569.992C224.827 572.223 223.474 579.033 227.589 583.923C229.648 586.371 230.96 587 234 587C240.969 587 245.44 578.567 241.228 573.367C238.028 569.417 234.497 568.321 230.357 569.992ZM227.645 613.193C224.317 617.21 224.302 620.017 227.589 623.923C232.943 630.286 243.485 626.226 242.799 618.064C242.62 615.927 242.014 614.595 241.286 614.738C240.61 614.871 240.312 614.35 240.614 613.565C241.325 611.71 238.014 610 233.711 610C231.083 610 229.677 610.74 227.645 613.193ZM1188.23 621.918C1196.59 629.383 1188.56 642.927 1177.58 639.895C1171.27 638.152 1168.1 630.06 1171.4 624.11C1174.59 618.348 1183.01 617.252 1188.23 621.918ZM254.389 640.342C248.644 645.284 252.444 655 260.122 655C264.424 655 266.961 653.336 268.585 649.452C270.259 645.445 270.342 644.671 269.011 645.493C268.438 645.847 268.281 645.431 268.638 644.501C269.005 643.544 268.326 641.911 266.952 640.449C263.859 637.156 258.149 637.107 254.389 640.342ZM343 641C336.812 647.188 346.121 656.772 352.949 651.242C355.692 649.021 355.975 643.734 353.497 640.997C351.108 638.357 345.641 638.359 343 641ZM351.5 645.391C351.5 648.959 348.815 651.003 346.25 649.388C342.327 646.917 344.275 641.66 348.914 642.199C351.03 642.445 351.5 643.026 351.5 645.391ZM42.191 653.025C31.872 655.728 25.569 659.407 17.417 667.483C-4.38998 689.087 -4.578 723.353 16.991 745.046C48.494 776.73 101.378 760.886 110.605 717C114.388 699.004 108.61 680.543 94.953 667C81.04 653.202 61.387 647.996 42.191 653.025ZM1216.72 680.25C1236.99 701.895 1261.34 728.077 1270.45 738.006C1273.23 741.034 1282.31 750.709 1290.63 759.506C1298.94 768.302 1306.97 776.962 1308.46 778.75L1311.18 782H1231.59C1187.82 782 1152 781.773 1152 781.495C1152 781.217 1154.64 777.054 1157.87 772.245C1166.74 759.049 1172.55 747.622 1176.43 735.776C1183.69 713.633 1183.19 696.912 1174.7 677.816L1172.17 672.131L1177.52 667.066C1180.66 664.1 1183.84 661.977 1185.19 661.944C1186.46 661.913 1189.08 661.291 1191 660.563C1192.93 659.835 1195.02 659.185 1195.66 659.119C1196.31 659.054 1205.78 668.563 1216.72 680.25ZM259 665.806C255.843 666.272 252.351 669.464 251.563 672.603C250.845 675.464 253.202 680.503 255.945 681.97C264.788 686.703 273.603 675.664 266.825 668.344C264.565 665.904 262.615 665.272 259 665.806ZM50.829 685.505C51.468 686.126 48.755 713.526 47.891 715.172C43.988 722.605 32.78 723.555 26.486 716.986L23.874 714.259L26.294 711.444L28.715 708.63L31.492 710.815C37.623 715.637 40.076 713.073 40.757 701.131L41.262 692.269L35.632 691.803C32.536 691.546 29.83 691.148 29.62 690.918C29.409 690.688 29.468 688.984 29.75 687.13L30.262 683.761L40.381 684.473C45.946 684.865 50.648 685.33 50.829 685.505ZM79.627 688.918C84.969 691.344 85.285 692.003 82.947 695.846L80.999 699.051L77.808 697.401C70.677 693.713 66 693.552 66 696.994C66 698.238 67.982 699.617 72.568 701.567C76.181 703.102 80.006 705.463 81.068 706.814C84.014 710.559 83.621 716.274 80.149 720.16C77.675 722.928 76.507 723.408 71.333 723.782C64.982 724.242 56.783 721.628 53.624 718.137C52.261 716.63 52.31 716.138 54.113 713.29L56.12 710.12L60.756 713.06C65.543 716.096 70.731 716.869 72.753 714.847C74.714 712.886 72.366 710.282 67.04 708.513C60.155 706.226 56 702.17 56 697.734C56 693.928 58.999 689.349 62.388 687.98C66.169 686.453 75.29 686.949 79.627 688.918ZM230.308 717.01C225.899 718.786 224.399 723.499 226.332 729.501C227.082 731.83 231.304 733.859 235.266 733.795C238.828 733.737 243 728.927 243 724.878C243 721.383 238.706 716.515 236.404 717.399C235.549 717.727 235.161 717.549 235.507 716.989C236.249 715.788 233.313 715.799 230.308 717.01ZM386 734C383.094 736.906 383.411 741.392 386.707 743.984C391.521 747.771 397 744.781 397 738.366C397 732.654 390.089 729.911 386 734ZM392.8 736.2C395.794 739.194 392.395 743.92 388.724 741.866C385.832 740.247 387.189 735 390.5 735C391.105 735 392.14 735.54 392.8 736.2ZM256.209 744.239C254.884 744.877 254.141 745.925 254.447 746.723C254.739 747.483 254.531 747.828 253.987 747.492C251.996 746.261 250.928 751.892 252.458 755.554C254.926 761.46 261.134 762.639 266.151 758.156C268.515 756.044 269.333 754.461 269.333 752C269.333 749.539 268.515 747.956 266.151 745.844C262.806 742.855 260.017 742.405 256.209 744.239ZM256.729 772.092C255.755 772.659 255.226 773.556 255.553 774.086C255.881 774.616 255.594 774.926 254.916 774.775C254.239 774.624 253 775.676 252.164 777.113C250.87 779.337 250.84 780.2 251.965 782.915C252.817 784.972 253.786 785.912 254.695 785.564C255.47 785.266 255.848 785.437 255.536 785.942C254.711 787.276 256.397 788.038 260.514 788.193C265.245 788.371 269.333 784.528 269.333 779.904C269.333 773.98 261.657 769.223 256.729 772.092ZM280 803C275.669 807.331 279.144 814.406 285.309 813.809C287.533 813.594 288.399 813.046 288.167 812C287.983 811.175 288.167 810.834 288.575 811.241C289.773 812.44 292 809.953 292 807.417C292 801.959 283.989 799.011 280 803ZM280 825C277.169 827.831 277.385 832.551 280.435 834.55C283.125 836.312 288.5 836.168 288.5 834.333C288.5 833.692 288.91 832.792 289.41 832.333C289.939 831.849 290.019 832.024 289.601 832.75C289.206 833.438 289.31 834 289.834 834C290.941 834 292 831.6 292 829.093C292 826.522 287.771 823 284.686 823C283.208 823 281.1 823.9 280 825ZM1390.7 836.956C1392.84 838.264 1394.28 840.211 1395.08 842.879C1396.12 846.347 1396.02 847.339 1394.29 850.671C1392.94 853.281 1391.17 854.924 1388.7 855.864C1384.16 857.591 1380.58 856.731 1376.87 853.026C1372.6 848.757 1372.81 842.988 1377.4 838.4C1381.41 834.392 1385.72 833.924 1390.7 836.956ZM1046.22 845.714C1045.19 846.095 1045.08 852.74 1045.68 879.344C1046.54 917.653 1046.73 1012.63 1046 1037.41C1045.51 1054.17 1045.81 1056.04 1048.77 1054.16C1051.4 1052.5 1052.43 991.827 1051.11 916.5C1049.89 846.328 1049.76 844.406 1046.22 845.714ZM667 853.414C667 854.818 667.657 863.287 668.46 872.234C674.362 937.983 676.406 1009.09 673.349 1042.25C672.767 1048.56 672.857 1049 674.747 1049C676.12 1049 676.983 1048.12 677.442 1046.25C679.641 1037.3 678.971 947.062 676.456 913.5C676.209 910.2 675.289 897.6 674.411 885.5C671.984 852.043 671.911 851.558 669.25 851.18C667.421 850.921 667 851.338 667 853.414ZM228.334 857.309C226.945 858.402 226.117 859.862 226.428 860.672C226.733 861.467 226.538 861.832 225.989 861.493C225.418 861.14 225 862.2 225 864C225 865.8 225.418 866.86 225.989 866.507C226.538 866.168 226.733 866.533 226.428 867.328C225.652 869.348 230.663 873 234.212 873C238.281 873 243 868.183 243 864.029C243 857.543 233.545 853.21 228.334 857.309ZM230.11 892.396C227.339 893.932 225.086 897.58 225.035 900.615C224.983 903.749 228.886 908.263 231.138 907.674C232.163 907.406 232.751 907.595 232.442 908.093C231 910.427 237.423 908.73 240.077 906.077C244.677 901.477 243.768 895.483 238.02 892.51C234.494 890.687 233.226 890.669 230.11 892.396ZM213.156 1010.46C201.394 1012.67 190.047 1018.71 181.581 1027.27C168.633 1040.34 163.479 1053.78 164.235 1072.5C164.933 1089.79 170.078 1101.9 181.595 1113.39C193.22 1124.99 204.665 1129.96 221.519 1130.73C240.413 1131.59 254.525 1126.3 267.383 1113.51C279.268 1101.7 285 1087.7 285 1070.5C285 1053.38 279.248 1039.24 267.505 1027.49C253.126 1013.11 232.822 1006.75 213.156 1010.46ZM219.684 1055.09C222.058 1056.24 223.99 1057.48 223.978 1057.84C223.966 1058.2 223.091 1059.62 222.035 1061C220.145 1063.46 220.069 1063.47 217.153 1061.75C207.204 1055.87 197.836 1066.99 205.923 1075.08C209.255 1078.41 211.72 1078.7 216.672 1076.35C220.007 1074.77 220.231 1074.79 222.241 1076.8C224.731 1079.29 223.827 1080.9 218.553 1083.41C210.824 1087.08 202.306 1084.51 197.185 1076.98C195.234 1074.1 194.89 1072.53 195.211 1067.95C195.673 1061.34 197.912 1057.85 203.5 1055.02C208.628 1052.43 214.24 1052.45 219.684 1055.09ZM239.306 1056.5C238.761 1059.86 238.859 1060 241.806 1060C244.536 1060 244.908 1059.64 245.187 1056.75C245.448 1054.04 245.959 1053.45 248.25 1053.18C250.795 1052.89 251 1053.13 251 1056.43C251 1059.55 251.309 1060 253.441 1060C256.38 1060 257.09 1060.94 256.335 1063.83C255.917 1065.42 255.002 1066 252.883 1066C251.298 1066 249.994 1066.34 249.986 1066.75C249.979 1067.16 249.701 1068.51 249.37 1069.75C248.837 1071.74 249.137 1072 251.95 1072C254.832 1072 255.103 1072.26 254.816 1074.75C254.554 1077.03 253.954 1077.55 251.309 1077.81C248.531 1078.08 248.078 1078.53 247.809 1081.31C247.552 1083.96 247.08 1084.5 245 1084.5C242.844 1084.5 242.501 1084.05 242.51 1081.25C242.518 1078.4 242.194 1078 239.871 1078C237.627 1078 237.12 1078.54 236.555 1081.56C235.964 1084.71 235.573 1085.09 233.193 1084.81C230.805 1084.53 230.537 1084.13 230.825 1081.25C231.115 1078.36 230.873 1078 228.634 1078C225.644 1078 224.639 1076.71 225.503 1073.99C225.945 1072.6 227.017 1072 229.067 1072C231.659 1072 232 1071.65 232 1069C232 1066.47 231.611 1066 229.5 1066C227.389 1066 227 1065.53 227 1063C227 1060.36 227.346 1060 229.889 1060C232.398 1060 232.864 1059.54 233.434 1056.5C234.005 1053.46 234.469 1053 236.982 1053C239.729 1053 239.846 1053.18 239.306 1056.5ZM628.354 1060.52C628.013 1061.41 628.183 1062.58 628.732 1063.13C629.28 1063.68 646.215 1066.48 666.365 1069.35L703 1074.58V1072.29C703 1071.03 702.804 1070 702.565 1070C701.945 1070 636.165 1060.15 632.237 1059.47C629.795 1059.05 628.818 1059.31 628.354 1060.52ZM1065 1067.55C1055.38 1069.38 1039.18 1072.31 1029 1074.04C1010.77 1077.15 1006.31 1078.71 1008.73 1081.13C1009.6 1082 1017.74 1080.87 1041.69 1076.58C1085.88 1068.65 1085.5 1068.74 1085.5 1066.44C1085.5 1065.39 1084.83 1064.46 1084 1064.37C1083.18 1064.28 1074.63 1065.71 1065 1067.55ZM238.667 1066.67C238.3 1067.03 238 1068.41 238 1069.73C238 1071.76 238.426 1072.08 240.75 1071.82C242.91 1071.57 243.568 1070.91 243.816 1068.75C244.084 1066.43 243.761 1066 241.733 1066C240.413 1066 239.033 1066.3 238.667 1066.67ZM1339.34 1105.2C1342.02 1106.6 1344.28 1112.72 1343.55 1116.6C1342.67 1121.27 1337.91 1125 1332.82 1125C1327.57 1125 1322 1119.88 1322 1115.05C1322 1105.79 1330.86 1100.76 1339.34 1105.2ZM948 1176.05C948 1177.97 940.979 1180.11 935.664 1179.8C931.179 1179.54 930.458 1179.2 930.18 1177.25C929.869 1175.06 930.097 1175 938.93 1175C944.604 1175 948 1175.39 948 1176.05Z" fill="#111235"/>
</svg>
